<svg id="Layer_1" data-name="Layer 1" xmlns="http://www.w3.org/2000/svg" viewBox="0 0 960 560"><defs><style>.cls-1{fill:#d2ea8e;}.cls-2,.cls-3{fill:none;stroke:#000;stroke-miterlimit:10;}.cls-2{stroke-width:7px;}.cls-3{stroke-width:10px;}</style></defs><rect class="cls-1" x="382.746" y="176.101" width="207.823" height="207.823" rx="52.281"/><path class="cls-2" d="M402.1,234.887l33.39,59.874a12.439,12.439,0,0,0,3.071,2.746L492,320.086a5.583,5.583,0,0,0,7.9-4.266l6.867-54.4a5.879,5.879,0,0,0-.719-3.594l-32.626-58.5"/><path class="cls-2" d="M435.274,294.377c45.285-5.776,71.331-35.569,71.331-35.569"/><polygon class="cls-2" points="486.658 311.812 497.37 306.471 495.387 315.191 486.658 311.812"/><path class="cls-3" d="M505.629,332.221c16.1-2.78,14.9,11.8,15.468,14.517,2.12,10.154,19.17-2.039,27.89-1.693,7,.278,10.249,13.34,10.249,13.34"/><line class="cls-2" x1="423.633" y1="227.726" x2="458.85" y2="288.889"/><line class="cls-2" x1="449.713" y1="215.654" x2="483.353" y2="276.28"/></svg>