<svg id="Layer_1" data-name="Layer 1" xmlns="http://www.w3.org/2000/svg" viewBox="0 0 960 560"><defs><style>.cls-1{fill:#d2ea8e;}.cls-2{fill:none;stroke:#000;stroke-miterlimit:10;stroke-width:21px;}</style></defs><rect class="cls-1" x="211.658" y="5.012" width="550" height="550" rx="52.281"/><path class="cls-2" d="M262.873,160.589l88.365,158.454c.8,1.427,6.2,6.456,8.127,7.27L500.8,386.068c9.44,3.988,19.687-1.544,20.917-11.292L539.892,230.8a15.564,15.564,0,0,0-1.9-9.513L451.647,66.455"/><path class="cls-2" d="M350.673,318.029C470.518,302.743,539.447,223.9,539.447,223.9"/><polygon class="cls-2" points="486.658 364.171 515.007 350.034 509.761 373.112 486.658 364.171"/><path class="cls-2" d="M536.865,418.18c42.6-7.357,39.434,31.224,40.937,38.422,5.608,26.87,50.73-5.4,73.809-4.482,18.533.735,27.124,35.3,27.124,35.3"/><line class="cls-2" x1="319.864" y1="141.638" x2="413.064" y2="303.504"/><line class="cls-2" x1="388.884" y1="109.689" x2="477.912" y2="270.136"/></svg>